P3
6 8
255
85 255 0 209 255 0 209 255 0 85 255 0 0 255 160 0 71 255 
209 255 0 0 0 0 0 0 0 209 255 0 0 255 90 0 119 255 
85 255 0 209 255 0 209 255 0 85 255 0 0 255 160 0 71 255 
0 255 160 0 255 90 0 255 90 0 255 160 0 171 255 61 0 255 
0 71 255 0 119 255 0 119 255 0 71 255 0 71 255 0 119 255 
217 0 255 180 0 255 61 0 255 0 171 255 0 255 160 0 255 90 
255 0 0 217 0 255 0 71 255 0 255 160 85 255 0 209 255 0 
255 0 29 180 0 255 0 119 255 0 255 90 209 255 0 0 0 0 
