P3
50 30
255
0 255 127 0 255 54 36 255 0 127 255 0 163 255 0 255 255 0 255 218 0 255 182 0 255 218 0 255 255 0 163 255 0 72 255 0 0 255 18 0 255 109 0 255 200 0 255 218 0 255 255 0 218 255 0 182 255 0 145 255 0 109 255 0 72 255 0 36 255 0 0 255 91 0 255 182 0 255 255 0 236 255 0 145 255 0 109 255 0 145 255 0 182 255 0 218 255 0 255 218 0 255 182 0 255 145 0 255 109 0 255 72 0 255 109 0 255 145 0 255 182 0 255 218 0 255 255 0 255 255 0 218 255 0 182 255 0 145 255 0 109 255 0 72 255 0 36 255 0 0 
0 255 91 0 255 0 72 255 0 163 255 0 255 255 0 255 218 0 255 127 0 255 91 0 255 127 0 255 218 0 200 255 0 109 255 0 18 255 0 0 255 72 0 255 163 0 255 127 0 255 163 0 255 200 0 255 236 0 236 255 0 200 255 0 163 255 0 127 255 0 36 255 54 0 255 145 0 255 236 0 255 255 0 182 255 0 200 255 0 236 236 0 255 200 0 255 163 0 255 127 0 255 91 0 255 54 0 255 18 0 255 0 18 255 18 0 255 54 0 255 91 0 255 127 0 255 163 0 255 200 0 255 236 0 255 255 0 236 255 0 200 255 0 163 255 0 127 255 0 36 
0 255 54 36 255 0 127 255 0 200 255 0 255 218 0 255 127 0 255 91 0 0 0 0 255 91 0 255 182 0 236 255 0 145 255 0 54 255 0 0 255 36 0 255 72 0 255 36 0 255 72 0 255 109 0 255 145 0 255 182 0 255 218 0 255 255 0 163 255 0 72 255 18 0 255 109 0 255 200 0 255 255 0 255 218 0 255 182 0 255 145 0 255 109 0 255 72 0 255 36 0 255 0 0 255 0 36 255 0 72 255 0 109 255 0 72 255 0 36 255 0 0 255 36 0 255 72 0 255 109 0 255 145 0 255 182 0 255 218 0 255 255 0 255 255 0 163 255 0 72 
0 255 18 72 255 0 163 255 0 255 255 0 255 182 0 255 91 0 0 0 0 255 91 0 255 127 0 255 218 0 200 255 0 109 255 0 72 255 0 36 255 0 18 255 0 54 255 0 18 255 0 0 255 18 0 255 54 0 255 91 0 255 127 0 255 218 0 200 255 0 109 255 0 18 255 72 0 255 163 0 255 182 0 255 127 0 255 91 0 255 54 0 255 18 0 255 0 18 255 0 54 255 0 91 255 0 127 255 0 163 255 0 200 255 0 163 255 0 127 255 0 91 255 0 54 255 0 18 255 18 0 255 54 0 255 91 0 255 127 0 255 218 0 255 255 0 200 255 0 109 
18 255 0 109 255 0 200 255 0 255 218 0 255 127 0 255 91 0 0 0 0 255 91 0 255 182 0 255 255 0 236 255 0 200 255 0 163 255 0 127 255 0 109 255 0 145 255 0 109 255 0 72 255 0 36 255 0 0 255 0 0 255 91 0 255 182 0 236 255 0 145 255 0 54 255 36 0 255 127 0 255 91 0 255 54 0 255 0 0 255 0 36 255 0 72 255 0 109 255 0 145 255 0 182 255 0 218 255 0 255 255 0 255 218 0 255 255 0 218 255 0 182 255 0 145 255 0 109 255 0 72 255 0 36 255 0 0 255 91 0 255 182 0 255 255 0 236 255 0 145 
54 255 0 145 255 0 236 255 0 255 182 0 255 91 0 0 0 0 255 91 0 255 127 0 255 218 0 255 218 0 255 182 0 255 218 0 255 255 0 163 255 0 200 255 0 236 255 0 200 255 0 163 255 0 127 255 0 36 255 0 0 255 54 0 255 145 0 255 236 0 182 255 0 91 255 0 0 255 91 0 255 0 0 255 0 36 255 0 72 255 0 127 255 0 163 255 0 200 255 0 236 255 0 255 236 0 255 200 0 255 163 0 255 127 0 255 163 0 255 200 0 255 236 0 236 255 0 200 255 0 163 255 0 127 255 0 36 255 54 0 255 145 0 255 236 0 255 255 0 182 
54 255 0 145 255 0 236 255 0 255 182 0 255 91 0 0 0 0 0 0 0 255 91 0 255 182 0 255 127 0 255 91 0 255 127 0 255 218 0 255 255 0 255 218 0 255 182 0 255 218 0 255 255 0 163 255 0 72 255 0 0 255 18 0 255 109 0 255 200 0 218 255 0 127 255 0 36 255 0 0 255 0 36 255 0 127 255 0 163 255 0 200 255 0 255 255 0 255 218 0 255 182 0 255 145 0 255 109 0 255 72 0 255 36 0 255 72 0 255 109 0 255 145 0 255 182 0 255 218 0 255 255 0 163 255 0 72 255 18 0 255 109 0 255 200 0 255 255 0 218 
18 255 0 109 255 0 200 255 0 255 218 0 255 127 0 255 91 0 255 91 0 255 127 0 255 182 0 255 91 0 0 0 0 255 91 0 255 127 0 255 218 0 255 127 0 255 91 0 255 127 0 255 218 0 200 255 0 109 255 0 18 255 0 0 255 72 0 255 163 0 255 255 0 163 255 0 72 255 0 72 255 0 127 255 0 163 255 0 255 255 0 255 218 0 255 182 0 255 127 0 255 91 0 255 54 0 255 18 18 255 0 54 255 0 18 255 0 0 255 18 0 255 54 0 255 91 0 255 127 0 255 218 0 200 255 0 109 255 0 18 255 72 0 255 163 0 255 255 0 255 
0 255 18 72 255 0 163 255 0 255 255 0 255 218 0 255 182 0 255 182 0 255 218 0 255 218 0 255 127 0 255 91 0 0 0 0 255 91 0 255 127 0 255 91 0 0 0 0 255 91 0 255 182 0 236 255 0 145 255 0 54 255 0 0 255 36 0 255 127 0 255 218 0 200 255 0 127 255 0 163 255 0 200 255 0 255 255 0 255 218 0 255 127 0 255 91 0 255 54 0 255 0 36 255 0 72 255 0 109 255 0 145 255 0 109 255 0 72 255 0 36 255 0 0 255 0 0 255 91 0 255 182 0 236 255 0 145 255 0 54 255 36 0 255 127 0 255 218 0 255 
0 255 54 36 255 0 127 255 0 163 255 0 200 255 0 236 255 0 236 255 0 200 255 0 255 255 0 255 182 0 255 91 0 0 0 0 255 91 0 255 91 0 0 0 0 255 91 0 255 127 0 255 218 0 200 255 0 109 255 0 18 255 0 0 255 72 0 255 163 0 255 255 0 163 255 0 163 255 0 255 255 0 255 218 0 255 182 0 255 127 0 255 91 0 255 0 36 255 0 72 255 0 127 255 0 163 255 0 200 255 0 236 255 0 200 255 0 163 255 0 127 255 0 36 255 0 0 255 54 0 255 145 0 255 236 0 182 255 0 91 255 0 0 255 91 0 255 182 0 255 
0 255 91 0 255 0 36 255 0 72 255 0 109 255 0 145 255 0 163 255 0 255 255 0 255 218 0 255 127 0 255 91 0 255 91 0 255 127 0 255 91 0 0 0 0 255 91 0 255 182 0 255 255 0 163 255 0 72 255 0 0 255 18 0 255 109 0 255 200 0 218 255 0 200 255 0 255 255 0 255 218 0 255 127 0 255 91 0 255 54 0 255 0 36 255 0 127 255 0 163 255 0 200 255 0 255 255 0 255 218 0 255 182 0 255 218 0 255 255 0 163 255 0 72 255 0 0 255 18 0 255 109 0 255 200 0 218 255 0 127 255 0 36 255 54 0 255 145 0 255 
0 255 127 0 255 91 0 255 54 0 255 0 36 255 0 127 255 0 200 255 0 255 218 0 255 127 0 255 91 0 0 0 0 255 91 0 255 91 0 0 0 0 255 91 0 255 127 0 255 218 0 200 255 0 127 255 0 36 255 0 0 255 54 0 255 145 0 255 236 0 255 255 0 255 218 0 255 182 0 255 127 0 255 91 0 255 0 36 255 0 72 255 0 127 255 0 163 255 0 255 255 0 255 218 0 255 182 0 255 127 0 255 91 0 255 127 0 255 218 0 200 255 0 109 255 0 18 255 0 0 255 72 0 255 163 0 255 255 0 163 255 0 72 255 18 0 255 109 0 255 
0 255 218 0 255 145 0 255 54 36 255 0 127 255 0 163 255 0 255 255 0 255 182 0 255 91 0 0 0 0 255 91 0 255 127 0 255 91 0 0 0 0 255 91 0 255 182 0 255 255 0 163 255 0 72 255 0 0 255 0 0 255 91 0 255 182 0 255 255 0 255 218 0 255 127 0 255 91 0 255 54 0 255 0 36 255 0 127 255 0 163 255 0 200 255 0 255 255 0 255 218 0 255 127 0 255 91 0 255 91 0 0 0 0 255 91 0 255 182 0 236 255 0 145 255 0 54 255 0 0 255 36 0 255 127 0 255 218 0 200 255 0 109 255 0 18 255 72 0 255 
0 255 200 0 255 109 0 255 18 72 255 0 163 255 0 255 255 0 255 218 0 255 127 0 255 91 0 0 0 0 255 91 0 255 91 0 0 0 0 255 91 0 255 127 0 255 218 0 200 255 0 127 255 0 36 255 0 0 255 54 0 255 127 0 255 218 0 255 182 0 255 127 0 255 91 0 255 0 36 255 0 72 255 0 127 255 0 163 255 0 255 255 0 255 218 0 255 182 0 255 127 0 255 91 0 0 0 0 255 91 0 255 91 0 255 127 0 255 218 0 200 255 0 109 255 0 18 255 0 0 255 72 0 255 163 0 255 255 0 163 255 0 72 255 18 0 255 109 0 255 
0 255 163 0 255 72 18 255 0 109 255 0 200 255 0 255 218 0 255 127 0 255 91 0 0 0 0 255 91 0 255 91 0 0 0 0 255 91 0 255 127 0 255 218 0 255 255 0 163 255 0 72 255 0 0 255 0 0 255 91 0 255 182 0 255 127 0 255 91 0 255 54 0 255 0 36 255 0 127 255 0 163 255 0 200 255 0 255 255 0 255 218 0 255 127 0 255 91 0 255 91 0 0 0 0 255 91 0 255 127 0 255 182 0 255 218 0 255 255 0 163 255 0 72 255 0 0 255 18 0 255 109 0 255 200 0 218 255 0 127 255 0 36 255 54 0 255 145 0 255 
0 255 127 0 255 36 54 255 0 145 255 0 236 255 0 255 182 0 255 91 0 0 0 0 255 91 0 255 91 0 0 0 0 255 91 0 255 127 0 255 218 0 255 255 0 163 255 0 127 255 0 36 255 0 0 255 54 0 255 127 0 255 127 0 255 91 0 255 0 36 255 0 72 255 0 127 255 0 163 255 0 255 255 0 255 218 0 255 182 0 255 127 0 255 91 0 0 0 0 0 0 0 255 91 0 255 127 0 255 218 0 255 255 0 200 255 0 163 255 0 127 255 0 36 255 0 0 255 54 0 255 145 0 255 236 0 182 255 0 91 255 0 0 255 91 0 255 182 0 255 
0 255 163 0 255 72 18 255 0 109 255 0 200 255 0 255 218 0 255 127 0 255 91 0 0 0 0 0 0 0 255 91 0 255 127 0 255 218 0 255 255 0 163 255 0 127 255 0 36 255 0 0 255 0 0 255 91 0 255 127 0 255 91 0 255 0 36 255 0 127 255 0 163 255 0 200 255 0 255 255 0 255 218 0 255 127 0 255 91 0 255 91 0 0 0 0 255 91 0 255 91 0 255 127 0 255 218 0 255 255 0 163 255 0 127 255 0 72 255 0 36 255 0 0 255 0 0 255 91 0 255 182 0 236 255 0 145 255 0 54 255 36 0 255 127 0 255 218 0 255 
0 255 200 0 255 109 0 255 18 72 255 0 163 255 0 255 255 0 255 218 0 255 127 0 255 91 0 255 91 0 255 127 0 255 218 0 255 255 0 163 255 0 127 255 0 36 255 0 0 255 0 0 255 91 0 255 127 0 255 91 0 255 0 36 255 0 127 255 0 163 255 0 255 255 0 255 218 0 255 182 0 255 127 0 255 91 0 0 0 0 0 0 0 255 91 0 255 127 0 255 182 0 255 218 0 255 255 0 163 255 0 127 255 0 72 255 0 36 255 0 0 255 0 0 255 91 0 255 127 0 255 218 0 200 255 0 109 255 0 18 255 72 0 255 163 0 255 255 0 255 
0 255 236 0 255 145 0 255 54 36 255 0 127 255 0 163 255 0 255 255 0 255 218 0 255 182 0 255 182 0 255 218 0 255 255 0 163 255 0 127 255 0 36 255 0 0 255 0 0 255 91 0 255 127 0 255 145 0 255 54 36 255 0 127 255 0 163 255 0 255 255 0 255 218 0 255 127 0 255 91 0 255 91 0 0 0 0 255 91 0 255 91 0 255 127 0 255 218 0 255 255 0 236 255 0 236 255 0 236 255 0 200 255 0 163 255 0 127 255 0 36 255 0 0 255 54 0 255 145 0 255 236 0 182 255 0 91 255 0 0 255 91 0 255 182 0 255 255 0 236 
0 236 255 0 255 182 0 255 91 0 255 0 36 255 0 127 255 0 163 255 0 200 255 0 236 255 0 236 255 0 200 255 0 163 255 0 127 255 0 36 255 0 0 255 0 0 255 91 0 255 127 0 255 200 0 255 109 0 255 18 72 255 0 163 255 0 255 255 0 255 218 0 255 127 0 255 91 0 0 0 0 0 0 0 255 91 0 255 127 0 255 182 0 255 182 0 255 182 0 255 182 0 255 182 0 255 182 0 255 182 0 255 218 0 255 255 0 163 255 0 72 255 0 0 255 18 0 255 109 0 255 200 0 218 255 0 127 255 0 36 255 54 0 255 145 0 255 236 0 255 
0 200 255 0 255 218 0 255 127 0 255 91 0 255 0 36 255 0 72 255 0 109 255 0 145 255 0 145 255 0 109 255 0 72 255 0 36 255 0 0 255 0 0 255 91 0 255 127 0 255 218 0 255 163 0 255 72 18 255 0 109 255 0 200 255 0 255 218 0 255 127 0 255 91 0 0 0 0 255 91 0 255 91 0 255 91 0 255 91 0 255 91 0 255 91 0 255 91 0 255 91 0 255 91 0 255 91 0 255 91 0 255 127 0 255 218 0 200 255 0 109 255 0 18 255 0 0 255 72 0 255 163 0 255 255 0 163 255 0 72 255 18 0 255 109 0 255 200 0 255 
0 163 255 0 255 255 0 255 218 0 255 127 0 255 91 0 255 54 0 255 18 18 255 0 54 255 0 54 255 0 18 255 0 0 255 18 0 255 54 0 255 91 0 255 127 0 255 218 0 255 218 0 255 127 0 255 36 54 255 0 145 255 0 236 255 0 255 182 0 255 91 0 0 0 0 0 0 0 0 0 0 0 0 0 0 0 0 0 0 0 0 0 0 0 0 0 0 0 0 0 0 0 0 0 0 0 0 0 0 0 0 255 91 0 255 182 0 236 255 0 145 255 0 54 255 0 0 255 36 0 255 127 0 255 218 0 200 255 0 109 255 0 18 255 72 0 255 163 0 255 
0 127 255 0 163 255 0 255 255 0 255 218 0 255 182 0 255 145 0 255 109 0 255 72 0 255 36 0 255 36 0 255 72 0 255 109 0 255 145 0 255 182 0 255 218 0 255 255 0 255 255 0 255 163 0 255 72 18 255 0 109 255 0 200 255 0 255 218 0 255 127 0 255 91 0 255 91 0 255 91 0 255 91 0 255 91 0 255 91 0 255 91 0 255 91 0 255 91 0 255 91 0 255 91 0 255 91 0 0 0 0 255 91 0 255 182 0 236 255 0 145 255 0 54 255 0 0 255 36 0 255 127 0 255 218 0 200 255 0 109 255 0 18 255 72 0 255 163 0 255 
0 36 255 0 127 255 0 163 255 0 200 255 0 236 255 0 255 236 0 255 200 0 255 163 0 255 127 0 255 127 0 255 163 0 255 200 0 255 236 0 236 255 0 200 255 0 163 255 0 218 255 0 255 200 0 255 109 0 255 18 72 255 0 163 255 0 255 255 0 255 218 0 255 182 0 255 182 0 255 182 0 255 182 0 255 182 0 255 182 0 255 182 0 255 182 0 255 182 0 255 182 0 255 182 0 255 127 0 255 91 0 255 127 0 255 218 0 200 255 0 109 255 0 18 255 0 0 255 72 0 255 163 0 255 255 0 163 255 0 72 255 18 0 255 109 0 255 200 0 255 
0 0 255 0 36 255 0 72 255 0 109 255 0 145 255 0 182 255 0 218 255 0 255 255 0 255 218 0 255 218 0 255 255 0 218 255 0 182 255 0 145 255 0 109 255 0 91 255 0 182 255 0 255 236 0 255 145 0 255 54 36 255 0 127 255 0 163 255 0 200 255 0 236 255 0 236 255 0 236 255 0 236 255 0 236 255 0 236 255 0 236 255 0 236 255 0 236 255 0 236 255 0 255 255 0 255 218 0 255 182 0 255 218 0 255 255 0 163 255 0 72 255 0 0 255 18 0 255 109 0 255 200 0 218 255 0 127 255 0 36 255 54 0 255 145 0 255 236 0 255 
91 0 255 54 0 255 18 0 255 0 18 255 0 54 255 0 91 255 0 127 255 0 163 255 0 200 255 0 200 255 0 163 255 0 127 255 0 91 255 0 54 255 0 18 255 0 54 255 0 145 255 0 236 255 0 255 182 0 255 91 0 255 0 36 255 0 72 255 0 109 255 0 145 255 0 145 255 0 145 255 0 145 255 0 145 255 0 145 255 0 145 255 0 145 255 0 145 255 0 145 255 0 163 255 0 200 255 0 236 255 0 200 255 0 163 255 0 127 255 0 36 255 0 0 255 54 0 255 145 0 255 236 0 182 255 0 91 255 0 0 255 91 0 255 182 0 255 255 0 236 
182 0 255 145 0 255 109 0 255 72 0 255 36 0 255 0 0 255 0 36 255 0 72 255 0 109 255 0 109 255 0 72 255 0 36 255 0 0 255 36 0 255 72 0 255 0 18 255 0 109 255 0 200 255 0 255 218 0 255 127 0 255 91 0 255 54 0 255 18 18 255 0 54 255 0 54 255 0 54 255 0 54 255 0 54 255 0 54 255 0 54 255 0 54 255 0 54 255 0 54 255 0 72 255 0 109 255 0 145 255 0 109 255 0 72 255 0 36 255 0 0 255 0 0 255 91 0 255 182 0 236 255 0 145 255 0 54 255 36 0 255 127 0 255 218 0 255 255 0 200 
255 0 236 236 0 255 200 0 255 163 0 255 127 0 255 91 0 255 54 0 255 18 0 255 0 18 255 0 18 255 18 0 255 54 0 255 91 0 255 127 0 255 109 0 255 18 0 255 0 72 255 0 163 255 0 255 255 0 255 218 0 255 182 0 255 145 0 255 109 0 255 72 0 255 36 0 255 36 0 255 36 0 255 36 0 255 36 0 255 36 0 255 36 0 255 36 0 255 36 0 255 36 0 255 18 18 255 0 54 255 0 18 255 0 0 255 18 0 255 54 0 255 91 0 255 127 0 255 218 0 200 255 0 109 255 0 18 255 72 0 255 163 0 255 255 0 255 255 0 163 
255 0 145 255 0 182 255 0 218 255 0 255 218 0 255 182 0 255 145 0 255 109 0 255 72 0 255 72 0 255 109 0 255 145 0 255 182 0 255 218 0 255 145 0 255 54 0 255 0 36 255 0 127 255 0 163 255 0 200 255 0 236 255 0 255 236 0 255 200 0 255 163 0 255 127 0 255 127 0 255 127 0 255 127 0 255 127 0 255 127 0 255 127 0 255 127 0 255 127 0 255 127 0 255 109 0 255 72 0 255 36 0 255 72 0 255 109 0 255 145 0 255 182 0 255 218 0 255 255 0 163 255 0 72 255 18 0 255 109 0 255 200 0 255 255 0 218 255 0 127 
255 0 54 255 0 91 255 0 127 255 0 163 255 0 200 255 0 236 236 0 255 200 0 255 163 0 255 163 0 255 200 0 255 236 0 255 255 0 236 255 0 236 182 0 255 91 0 255 0 0 255 0 36 255 0 72 255 0 109 255 0 145 255 0 182 255 0 218 255 0 255 255 0 255 218 0 255 218 0 255 218 0 255 218 0 255 218 0 255 218 0 255 218 0 255 218 0 255 218 0 255 218 0 255 200 0 255 163 0 255 127 0 255 163 0 255 200 0 255 236 0 236 255 0 200 255 0 163 255 0 127 255 0 36 255 54 0 255 145 0 255 236 0 255 255 0 182 255 0 91 
