P3
50 30
255
0 255 94 0 255 15 59 255 0 127 255 0 184 255 0 254 255 0 255 201 0 255 180 0 255 201 0 254 255 0 184 255 0 106 255 0 24 255 0 0 255 60 0 255 146 0 255 211 0 255 216 0 255 233 0 249 255 0 213 255 0 169 255 0 118 255 0 61 255 0 0 255 65 0 255 134 0 255 206 0 255 255 0 229 255 0 198 255 0 239 232 0 255 189 0 255 152 0 255 120 0 255 95 0 255 76 0 255 65 0 255 61 0 255 65 0 255 76 0 255 95 0 255 120 0 255 152 0 255 189 0 255 232 0 255 255 0 229 255 0 177 255 0 121 255 0 62 255 0 0 
0 255 60 24 255 0 106 255 0 184 255 0 254 255 0 255 201 0 255 127 0 255 90 0 255 127 0 255 201 0 224 255 0 138 255 0 50 255 0 0 255 38 0 255 127 0 255 121 0 255 127 0 255 146 0 255 176 0 255 216 0 244 255 0 188 255 0 127 255 0 61 255 7 0 255 80 0 255 155 0 255 232 0 255 232 0 255 189 0 255 152 0 255 109 0 255 69 0 255 35 0 255 7 0 255 0 12 255 0 24 255 0 28 255 0 24 255 0 12 255 7 0 255 35 0 255 69 0 255 109 0 255 155 0 255 206 0 255 255 0 248 255 0 189 255 0 127 255 0 62 
0 255 15 59 255 0 138 255 0 224 255 0 255 201 0 255 127 0 255 90 0 0 0 0 255 90 0 255 180 0 239 255 0 149 255 0 59 255 0 0 255 15 0 255 38 0 255 30 0 255 38 0 255 60 0 255 94 0 255 140 0 255 194 0 255 255 0 188 255 0 118 255 0 44 255 31 0 255 109 0 255 189 0 255 155 0 255 109 0 255 69 0 255 31 0 255 0 12 255 0 48 255 0 78 255 0 100 255 0 113 255 0 118 255 0 113 255 0 100 255 0 78 255 0 48 255 0 12 255 31 0 255 80 0 255 134 0 255 192 0 255 255 0 254 255 0 189 255 0 121 
24 255 0 106 255 0 184 255 0 254 255 0 255 180 0 255 90 0 0 0 0 255 90 0 255 127 0 255 201 0 224 255 0 138 255 0 106 255 0 59 255 0 50 255 0 59 255 0 50 255 0 24 255 0 0 255 15 0 255 67 0 255 127 0 255 194 0 244 255 0 169 255 0 91 255 0 12 255 69 0 255 134 0 255 80 0 255 31 0 255 0 12 255 0 48 255 0 91 255 0 132 255 0 164 255 0 188 255 0 203 255 0 208 255 0 203 255 0 188 255 0 164 255 0 132 255 0 91 255 0 44 255 7 0 255 65 0 255 127 0 255 192 0 255 255 0 248 255 0 177 
50 255 0 138 255 0 224 255 0 255 201 0 255 127 0 255 90 0 0 0 0 255 90 0 255 180 0 254 255 0 239 255 0 224 255 0 184 255 0 127 255 0 138 255 0 149 255 0 138 255 0 106 255 0 59 255 0 0 255 0 0 255 67 0 255 140 0 255 216 0 213 255 0 132 255 0 48 255 35 0 255 65 0 255 7 0 255 0 44 255 0 91 255 0 132 255 0 169 255 0 213 255 0 249 255 0 255 233 0 255 216 0 255 211 0 255 216 0 255 233 0 249 255 0 213 255 0 169 255 0 118 255 0 61 255 0 0 255 65 0 255 134 0 255 206 0 255 255 0 229 
59 255 0 149 255 0 239 255 0 255 180 0 255 90 0 0 0 0 255 90 0 255 127 0 255 201 0 255 201 0 255 180 0 255 201 0 254 255 0 184 255 0 224 255 0 239 255 0 224 255 0 184 255 0 127 255 0 59 255 0 0 255 15 0 255 94 0 255 176 0 249 255 0 164 255 0 78 255 7 0 255 0 12 255 0 61 255 0 118 255 0 169 255 0 213 255 0 249 255 0 255 216 0 255 176 0 255 146 0 255 127 0 255 121 0 255 127 0 255 146 0 255 176 0 255 216 0 244 255 0 188 255 0 127 255 0 61 255 7 0 255 80 0 255 155 0 255 232 0 255 
59 255 0 149 255 0 239 255 0 255 180 0 255 90 0 0 0 0 0 0 0 255 90 0 255 180 0 255 127 0 255 90 0 255 127 0 255 201 0 254 255 0 255 201 0 255 180 0 255 201 0 254 255 0 184 255 0 106 255 0 24 255 0 0 255 60 0 255 146 0 255 233 0 188 255 0 100 255 0 44 255 0 91 255 0 132 255 0 188 255 0 244 255 0 255 216 0 255 176 0 255 140 0 255 94 0 255 60 0 255 38 0 255 30 0 255 38 0 255 60 0 255 94 0 255 140 0 255 194 0 255 255 0 188 255 0 118 255 0 44 255 31 0 255 109 0 255 189 0 255 
50 255 0 138 255 0 224 255 0 255 201 0 255 127 0 255 90 0 255 90 0 255 127 0 255 180 0 255 90 0 0 0 0 255 90 0 255 127 0 255 201 0 255 127 0 255 90 0 255 127 0 255 201 0 224 255 0 138 255 0 50 255 0 0 255 38 0 255 127 0 255 216 0 203 255 0 113 255 0 118 255 0 169 255 0 213 255 0 255 255 0 255 194 0 255 140 0 255 94 0 255 60 0 255 15 24 255 0 50 255 0 59 255 0 50 255 0 24 255 0 0 255 15 0 255 67 0 255 127 0 255 194 0 244 255 0 169 255 0 91 255 0 12 255 69 0 255 152 0 255 
24 255 0 106 255 0 184 255 0 254 255 0 255 201 0 255 180 0 255 180 0 255 201 0 255 201 0 255 127 0 255 90 0 0 0 0 255 90 0 255 127 0 255 90 0 0 0 0 255 90 0 255 180 0 239 255 0 149 255 0 59 255 0 0 255 30 0 255 121 0 255 211 0 208 255 0 132 255 0 188 255 0 244 255 0 255 216 0 255 176 0 255 127 0 255 67 0 255 15 24 255 0 59 255 0 106 255 0 138 255 0 149 255 0 138 255 0 106 255 0 59 255 0 0 255 0 0 255 67 0 255 140 0 255 216 0 213 255 0 132 255 0 48 255 35 0 255 120 0 255 
0 255 15 59 255 0 127 255 0 184 255 0 224 255 0 239 255 0 239 255 0 224 255 0 254 255 0 255 180 0 255 90 0 0 0 0 255 90 0 255 90 0 0 0 0 255 90 0 255 127 0 255 201 0 224 255 0 138 255 0 50 255 0 0 255 38 0 255 127 0 255 216 0 203 255 0 213 255 0 255 255 0 255 194 0 255 140 0 255 94 0 255 60 0 255 0 59 255 0 106 255 0 138 255 0 184 255 0 224 255 0 239 255 0 224 255 0 184 255 0 127 255 0 59 255 0 0 255 15 0 255 94 0 255 176 0 249 255 0 164 255 0 78 255 7 0 255 95 0 255 
0 255 67 0 255 0 59 255 0 106 255 0 138 255 0 149 255 0 184 255 0 254 255 0 255 201 0 255 127 0 255 90 0 255 90 0 255 127 0 255 90 0 0 0 0 255 90 0 255 180 0 254 255 0 184 255 0 106 255 0 24 255 0 0 255 60 0 255 146 0 255 233 0 244 255 0 255 216 0 255 176 0 255 127 0 255 67 0 255 15 24 255 0 59 255 0 127 255 0 184 255 0 224 255 0 254 255 0 255 201 0 255 180 0 255 201 0 254 255 0 184 255 0 106 255 0 24 255 0 0 255 60 0 255 146 0 255 233 0 188 255 0 100 255 0 12 255 76 0 255 
0 255 127 0 255 67 0 255 15 24 255 0 59 255 0 138 255 0 224 255 0 255 201 0 255 127 0 255 90 0 0 0 0 255 90 0 255 90 0 0 0 0 255 90 0 255 127 0 255 201 0 224 255 0 138 255 0 59 255 0 0 255 15 0 255 94 0 255 176 0 255 255 0 255 194 0 255 140 0 255 94 0 255 60 0 255 0 59 255 0 106 255 0 138 255 0 184 255 0 254 255 0 255 201 0 255 180 0 255 127 0 255 90 0 255 127 0 255 201 0 224 255 0 138 255 0 50 255 0 0 255 38 0 255 127 0 255 216 0 203 255 0 113 255 0 24 255 65 0 255 
0 255 176 0 255 94 0 255 15 59 255 0 127 255 0 184 255 0 254 255 0 255 180 0 255 90 0 0 0 0 255 90 0 255 127 0 255 90 0 0 0 0 255 90 0 255 180 0 254 255 0 184 255 0 106 255 0 24 255 0 0 255 60 0 255 140 0 255 216 0 255 176 0 255 127 0 255 67 0 255 15 24 255 0 59 255 0 127 255 0 184 255 0 224 255 0 254 255 0 255 201 0 255 127 0 255 90 0 255 90 0 0 0 0 255 90 0 255 180 0 239 255 0 149 255 0 59 255 0 0 255 30 0 255 121 0 255 211 0 208 255 0 118 255 0 28 255 61 0 255 
0 255 146 0 255 60 24 255 0 106 255 0 184 255 0 254 255 0 255 201 0 255 127 0 255 90 0 0 0 0 255 90 0 255 90 0 0 0 0 255 90 0 255 127 0 255 201 0 224 255 0 138 255 0 59 255 0 0 255 15 0 255 94 0 255 176 0 255 140 0 255 94 0 255 60 0 255 0 59 255 0 106 255 0 138 255 0 184 255 0 254 255 0 255 201 0 255 180 0 255 127 0 255 90 0 0 0 0 255 90 0 255 90 0 255 127 0 255 201 0 224 255 0 138 255 0 50 255 0 0 255 38 0 255 127 0 255 216 0 203 255 0 113 255 0 24 255 65 0 255 
0 255 127 0 255 38 50 255 0 138 255 0 224 255 0 255 201 0 255 127 0 255 90 0 0 0 0 255 90 0 255 90 0 0 0 0 255 90 0 255 127 0 255 201 0 254 255 0 184 255 0 106 255 0 24 255 0 0 255 60 0 255 140 0 255 127 0 255 67 0 255 15 24 255 0 59 255 0 127 255 0 184 255 0 224 255 0 254 255 0 255 201 0 255 127 0 255 90 0 255 90 0 0 0 0 255 90 0 255 127 0 255 180 0 255 201 0 254 255 0 184 255 0 106 255 0 24 255 0 0 255 60 0 255 146 0 255 233 0 188 255 0 100 255 0 12 255 76 0 255 
0 255 121 0 255 30 59 255 0 149 255 0 239 255 0 255 180 0 255 90 0 0 0 0 255 90 0 255 90 0 0 0 0 255 90 0 255 127 0 255 201 0 254 255 0 184 255 0 127 255 0 59 255 0 0 255 15 0 255 94 0 255 127 0 255 67 0 255 0 59 255 0 106 255 0 138 255 0 184 255 0 254 255 0 255 201 0 255 180 0 255 127 0 255 90 0 0 0 0 0 0 0 255 90 0 255 127 0 255 201 0 254 255 0 224 255 0 184 255 0 127 255 0 59 255 0 0 255 15 0 255 94 0 255 176 0 249 255 0 164 255 0 78 255 7 0 255 95 0 255 
0 255 127 0 255 38 50 255 0 138 255 0 224 255 0 255 201 0 255 127 0 255 90 0 0 0 0 0 0 0 255 90 0 255 127 0 255 201 0 254 255 0 184 255 0 127 255 0 59 255 0 0 255 0 0 255 67 0 255 127 0 255 67 0 255 0 59 255 0 127 255 0 184 255 0 224 255 0 254 255 0 255 201 0 255 127 0 255 90 0 255 90 0 0 0 0 255 90 0 255 90 0 255 127 0 255 201 0 254 255 0 184 255 0 138 255 0 106 255 0 59 255 0 0 255 0 0 255 67 0 255 140 0 255 216 0 213 255 0 132 255 0 48 255 35 0 255 120 0 255 
0 255 146 0 255 60 24 255 0 106 255 0 184 255 0 254 255 0 255 201 0 255 127 0 255 90 0 255 90 0 255 127 0 255 201 0 254 255 0 184 255 0 127 255 0 59 255 0 0 255 0 0 255 67 0 255 127 0 255 67 0 255 0 59 255 0 127 255 0 184 255 0 254 255 0 255 201 0 255 180 0 255 127 0 255 90 0 0 0 0 0 0 0 255 90 0 255 127 0 255 180 0 255 201 0 254 255 0 184 255 0 138 255 0 106 255 0 59 255 0 0 255 0 0 255 67 0 255 127 0 255 194 0 244 255 0 169 255 0 91 255 0 12 255 69 0 255 152 0 255 
0 255 176 0 255 94 0 255 15 59 255 0 127 255 0 184 255 0 254 255 0 255 201 0 255 180 0 255 180 0 255 201 0 254 255 0 184 255 0 127 255 0 59 255 0 0 255 0 0 255 67 0 255 127 0 255 94 0 255 15 59 255 0 127 255 0 184 255 0 254 255 0 255 201 0 255 127 0 255 90 0 255 90 0 0 0 0 255 90 0 255 90 0 255 127 0 255 201 0 254 255 0 239 255 0 239 255 0 239 255 0 224 255 0 184 255 0 127 255 0 59 255 0 0 255 15 0 255 94 0 255 176 0 249 255 0 164 255 0 78 255 7 0 255 95 0 255 182 0 255 
0 255 216 0 255 140 0 255 67 0 255 0 59 255 0 127 255 0 184 255 0 224 255 0 239 255 0 239 255 0 224 255 0 184 255 0 127 255 0 59 255 0 0 255 0 0 255 67 0 255 127 0 255 146 0 255 60 24 255 0 106 255 0 184 255 0 254 255 0 255 201 0 255 127 0 255 90 0 0 0 0 0 0 0 255 90 0 255 127 0 255 180 0 255 180 0 255 180 0 255 180 0 255 180 0 255 180 0 255 180 0 255 201 0 254 255 0 184 255 0 106 255 0 24 255 0 0 255 60 0 255 146 0 255 233 0 188 255 0 100 255 0 12 255 76 0 255 165 0 255 
0 244 255 0 255 194 0 255 127 0 255 67 0 255 0 59 255 0 106 255 0 138 255 0 149 255 0 149 255 0 138 255 0 106 255 0 59 255 0 0 255 0 0 255 67 0 255 127 0 255 194 0 255 127 0 255 38 50 255 0 138 255 0 224 255 0 255 201 0 255 127 0 255 90 0 0 0 0 255 90 0 255 90 0 255 90 0 255 90 0 255 90 0 255 90 0 255 90 0 255 90 0 255 90 0 255 90 0 255 90 0 255 127 0 255 201 0 224 255 0 138 255 0 50 255 0 0 255 38 0 255 127 0 255 216 0 203 255 0 113 255 0 24 255 65 0 255 155 0 255 
0 188 255 0 255 255 0 255 194 0 255 127 0 255 67 0 255 15 24 255 0 50 255 0 59 255 0 59 255 0 50 255 0 24 255 0 0 255 15 0 255 67 0 255 127 0 255 194 0 255 211 0 255 121 0 255 30 59 255 0 149 255 0 239 255 0 255 180 0 255 90 0 0 0 0 0 0 0 0 0 0 0 0 0 0 0 0 0 0 0 0 0 0 0 0 0 0 0 0 0 0 0 0 0 0 0 0 0 0 0 0 255 90 0 255 180 0 239 255 0 149 255 0 59 255 0 0 255 30 0 255 121 0 255 211 0 208 255 0 118 255 0 28 255 61 0 255 152 0 255 
0 127 255 0 188 255 0 255 255 0 255 194 0 255 140 0 255 94 0 255 60 0 255 38 0 255 30 0 255 30 0 255 38 0 255 60 0 255 94 0 255 140 0 255 194 0 255 255 0 255 216 0 255 127 0 255 38 50 255 0 138 255 0 224 255 0 255 201 0 255 127 0 255 90 0 255 90 0 255 90 0 255 90 0 255 90 0 255 90 0 255 90 0 255 90 0 255 90 0 255 90 0 255 90 0 255 90 0 0 0 0 255 90 0 255 180 0 239 255 0 149 255 0 59 255 0 0 255 30 0 255 121 0 255 211 0 208 255 0 118 255 0 28 255 61 0 255 152 0 255 
0 61 255 0 127 255 0 188 255 0 244 255 0 255 216 0 255 176 0 255 146 0 255 127 0 255 121 0 255 121 0 255 127 0 255 146 0 255 176 0 255 216 0 244 255 0 188 255 0 255 233 0 255 146 0 255 60 24 255 0 106 255 0 184 255 0 254 255 0 255 201 0 255 180 0 255 180 0 255 180 0 255 180 0 255 180 0 255 180 0 255 180 0 255 180 0 255 180 0 255 180 0 255 180 0 255 127 0 255 90 0 255 127 0 255 201 0 224 255 0 138 255 0 50 255 0 0 255 38 0 255 127 0 255 216 0 203 255 0 113 255 0 24 255 65 0 255 155 0 255 
0 0 255 0 61 255 0 118 255 0 169 255 0 213 255 0 249 255 0 255 233 0 255 216 0 255 211 0 255 211 0 255 216 0 255 233 0 249 255 0 213 255 0 169 255 0 164 255 0 249 255 0 255 176 0 255 94 0 255 15 59 255 0 127 255 0 184 255 0 224 255 0 239 255 0 239 255 0 239 255 0 239 255 0 239 255 0 239 255 0 239 255 0 239 255 0 239 255 0 239 255 0 254 255 0 255 201 0 255 180 0 255 201 0 254 255 0 184 255 0 106 255 0 24 255 0 0 255 60 0 255 146 0 255 233 0 188 255 0 100 255 0 12 255 76 0 255 165 0 255 
65 0 255 7 0 255 0 44 255 0 91 255 0 132 255 0 164 255 0 188 255 0 203 255 0 208 255 0 208 255 0 203 255 0 188 255 0 164 255 0 132 255 0 91 255 0 132 255 0 213 255 0 255 216 0 255 140 0 255 67 0 255 0 59 255 0 106 255 0 138 255 0 149 255 0 149 255 0 149 255 0 149 255 0 149 255 0 149 255 0 149 255 0 149 255 0 149 255 0 149 255 0 184 255 0 224 255 0 239 255 0 224 255 0 184 255 0 127 255 0 59 255 0 0 255 15 0 255 94 0 255 176 0 249 255 0 164 255 0 78 255 7 0 255 95 0 255 182 0 255 
134 0 255 80 0 255 31 0 255 0 12 255 0 48 255 0 78 255 0 100 255 0 113 255 0 118 255 0 118 255 0 113 255 0 100 255 0 78 255 0 48 255 0 12 255 0 91 255 0 169 255 0 244 255 0 255 194 0 255 127 0 255 67 0 255 15 24 255 0 50 255 0 59 255 0 59 255 0 59 255 0 59 255 0 59 255 0 59 255 0 59 255 0 59 255 0 59 255 0 59 255 0 106 255 0 138 255 0 149 255 0 138 255 0 106 255 0 59 255 0 0 255 0 0 255 67 0 255 140 0 255 216 0 213 255 0 132 255 0 48 255 35 0 255 120 0 255 206 0 255 
206 0 255 155 0 255 109 0 255 69 0 255 35 0 255 7 0 255 0 12 255 0 24 255 0 28 255 0 28 255 0 24 255 0 12 255 7 0 255 35 0 255 31 0 255 0 44 255 0 118 255 0 188 255 0 255 255 0 255 194 0 255 140 0 255 94 0 255 60 0 255 38 0 255 30 0 255 30 0 255 30 0 255 30 0 255 30 0 255 30 0 255 30 0 255 30 0 255 30 0 255 15 24 255 0 50 255 0 59 255 0 50 255 0 24 255 0 0 255 15 0 255 67 0 255 127 0 255 194 0 244 255 0 169 255 0 91 255 0 12 255 69 0 255 152 0 255 235 0 255 
255 0 229 232 0 255 189 0 255 152 0 255 120 0 255 95 0 255 76 0 255 65 0 255 61 0 255 61 0 255 65 0 255 76 0 255 95 0 255 120 0 255 80 0 255 7 0 255 0 61 255 0 127 255 0 188 255 0 244 255 0 255 216 0 255 176 0 255 146 0 255 127 0 255 121 0 255 121 0 255 121 0 255 121 0 255 121 0 255 121 0 255 121 0 255 121 0 255 121 0 255 94 0 255 60 0 255 38 0 255 30 0 255 38 0 255 60 0 255 94 0 255 140 0 255 194 0 255 255 0 188 255 0 118 255 0 44 255 31 0 255 109 0 255 189 0 255 255 0 239 
255 0 153 255 0 198 255 0 239 235 0 255 206 0 255 182 0 255 165 0 255 155 0 255 152 0 255 152 0 255 155 0 255 165 0 255 182 0 255 206 0 255 134 0 255 65 0 255 0 0 255 0 61 255 0 118 255 0 169 255 0 213 255 0 249 255 0 255 233 0 255 216 0 255 211 0 255 211 0 255 211 0 255 211 0 255 211 0 255 211 0 255 211 0 255 211 0 255 211 0 255 176 0 255 146 0 255 127 0 255 121 0 255 127 0 255 146 0 255 176 0 255 216 0 244 255 0 188 255 0 127 255 0 61 255 7 0 255 80 0 255 155 0 255 232 0 255 255 0 198 
